<?xml version="1.0" encoding="UTF-8" standalone="no"?>
<!-- Created with Inkscape (http://www.inkscape.org/) -->

<svg
   version="1.1"
   id="svg1"
   width="1254"
   height="1254"
   viewBox="0 0 1254 1254"
   sodipodi:docname="linkmoth logo.svg"
   inkscape:version="1.4.4 (dcaf3e7, 2026-05-05)"
   xmlns:inkscape="http://www.inkscape.org/namespaces/inkscape"
   xmlns:sodipodi="http://sodipodi.sourceforge.net/DTD/sodipodi-0.dtd"
   xmlns="http://www.w3.org/2000/svg"
   xmlns:svg="http://www.w3.org/2000/svg">
  <defs
     id="defs1" />
  <sodipodi:namedview
     id="namedview1"
     pagecolor="#ffffff"
     bordercolor="#000000"
     borderopacity="0.25"
     inkscape:showpageshadow="2"
     inkscape:pageopacity="0.0"
     inkscape:pagecheckerboard="0"
     inkscape:deskcolor="#d1d1d1"
     inkscape:zoom="0.45505197"
     inkscape:cx="1021.8613"
     inkscape:cy="715.30291"
     inkscape:window-width="1920"
     inkscape:window-height="1009"
     inkscape:window-x="1912"
     inkscape:window-y="-8"
     inkscape:window-maximized="1"
     inkscape:current-layer="g1"
     inkscape:export-bgcolor="#ffffff00">
    <inkscape:page
       x="0"
       y="0"
       width="1254"
       height="1254"
       id="page2"
       margin="0"
       bleed="0" />
  </sodipodi:namedview>
  <g
     inkscape:groupmode="layer"
     inkscape:label="Image"
     id="g1">
    <path
       style="fill:#000000;stroke-width:1.39942"
       d="m 860.62943,1069.7367 c -11.71891,-3.7012 -19.85169,-8.6877 -27.50076,-16.8618 -12.4598,-13.3151 -17.09604,-26.3841 -16.21625,-45.7116 0.49472,-10.86775 1.23068,-13.90958 5.27522,-21.8032 11.48459,-22.41411 33.44708,-35.07323 60.91668,-35.11218 20.14993,-0.0285 34.33309,5.004 47.29371,16.78117 13.43434,12.20762 20.05918,29.6405 18.63819,49.04531 -1.7499,23.8961 -16.67779,43.807 -39.17366,52.2501 -11.65569,4.3745 -37.50579,5.116 -49.23313,1.4122 z m 39.69427,-24.7761 c 14.03492,-5.965 20.73094,-15.701 21.68462,-31.5294 0.52553,-8.7224 0.0921,-11.7164 -2.55036,-17.61824 -10.15721,-22.6856 -42.71102,-29.56773 -62.57744,-13.22934 -7.82965,6.43919 -11.58246,13.68519 -12.62077,24.36848 -1.94752,20.038 9.21504,35.8693 28.79382,40.8369 6.80177,1.7258 19.70299,0.3877 27.27013,-2.8284 z m 111.2152,26.1628 c -10.5245,-2.6854 -16.64928,-7.6271 -22.3249,-18.0125 -3.25002,-5.947 -3.39033,-7.4626 -3.83643,-41.4388 l -0.46302,-35.26599 -10.95845,-0.39879 -10.95844,-0.3988 -0.41466,-11.31672 -0.41466,-11.31672 h 11.25623 11.25624 l 2.00758,-13.3743 2.00758,-13.3743 6.80385,-1.61353 c 3.74213,-0.88744 8.88178,-1.81335 11.42148,-2.05759 l 4.6176,-0.44405 0.4037,15.43188 0.4037,15.43189 h 17.1432 17.1431 l -0.4146,11.31672 -0.4147,11.31672 -16.8483,0.38707 -16.8483,0.38707 0.4299,32.16284 0.43,32.1628 3.8958,3.7405 c 3.3254,3.1928 4.9979,3.7146 11.4215,3.5633 4.1391,-0.097 9.2697,-0.8183 11.4012,-1.6019 2.1627,-0.7951 4.2172,-0.8938 4.6484,-0.2235 0.425,0.6608 1.6466,5.6415 2.7146,11.0682 l 1.9418,9.8668 -4.9505,1.9874 c -5.7882,2.3237 -26.3047,3.5952 -32.5005,2.0143 z M 87.113547,988.63989 v -82.3034 h 14.276843 14.27684 v 69.27203 69.27198 h 46.39973 46.39972 v 13.0314 13.0314 H 147.79012 87.113547 Z m 152.762183,23.37081 v -59.03562 h 13.57833 13.57832 l -0.37224,58.64122 -0.37226,58.6411 -13.20607,0.3944 -13.20608,0.3944 z m 66.62526,58.0181 c -0.52349,-0.5029 -0.9518,-27.0458 -0.9518,-58.9841 v -58.06962 h 13.563 13.563 v 7.71918 7.71918 l 6.5307,-5.78383 c 9.24309,-8.18603 17.58251,-11.39 31.54763,-12.12047 16.16532,-0.84555 28.87255,2.87976 38.65855,11.33335 13.8113,11.93083 16.46365,24.4926 15.79521,74.80771 l -0.44648,33.6072 -13.20607,0.3944 -13.20608,0.3944 v -34.1573 c 0,-18.7865 -0.64556,-37.42791 -1.43458,-41.4253 -2.56945,-13.01762 -10.62075,-19.76757 -25.61365,-21.47365 -16.82774,-1.91488 -33.66867,9.03993 -37.02703,24.0856 -0.92723,4.15405 -1.5982,20.95305 -1.5982,40.01385 v 32.8539 h -12.61121 c -6.93617,0 -13.03952,-0.4115 -13.56299,-0.9145 z m 155.6689,0.049 c -0.55173,-0.5301 -1.00315,-37.5889 -1.00315,-82.3528 v -81.38891 h 13.563 13.563 l 0.0435,47.66738 0.0436,47.66743 24.58395,-24.404 24.58394,-24.40397 16.77529,0.0558 c 9.22641,0.0307 16.77528,0.51239 16.77528,1.07037 0,0.55796 -11.03816,11.63299 -24.52925,24.61117 l -24.52924,23.59673 13.44051,16.8834 c 7.39227,9.2859 19.39411,24.2864 26.67076,33.3344 7.27665,9.0479 13.23028,16.9182 13.23028,17.4894 0,0.5713 -6.95505,1.0386 -15.45567,1.0386 -14.21298,0 -15.68992,-0.2481 -18.36936,-3.0863 -3.34411,-3.5423 -34.30781,-43.1448 -36.18143,-46.276 -1.00552,-1.6804 -2.6881,-0.6992 -8.80572,5.1349 l -7.56259,7.2123 -0.71384,18.1647 -0.71384,18.1646 -12.20293,0.3923 c -6.7116,0.2158 -12.65434,-0.041 -13.20608,-0.5715 z m 138.90988,-58.119 v -58.98412 h 12.84916 12.84915 v 7.85701 7.85703 l 4.13236,-4.81677 c 2.27279,-2.6492 7.57307,-6.64782 11.7784,-8.8858 7.04687,-3.7502 8.76478,-4.06897 21.92287,-4.068 12.77343,9.5e-4 15.05131,0.3934 21.63147,3.72684 4.04504,2.04918 9.77713,6.40146 12.73798,9.67173 l 5.38335,5.94594 6.25521,-6.01002 c 3.44038,-3.30553 9.91498,-7.65828 14.38802,-9.67279 7.02492,-3.1638 9.98039,-3.66275 21.6958,-3.66275 11.94127,0 14.52929,0.45593 21.64446,3.81309 10.11098,4.77067 17.01285,12.01529 21.35277,22.41312 3.283,7.8656 3.36744,9.12787 3.38475,50.59029 l 0.0177,42.5234 -13.20607,0.3944 -13.20608,0.3944 v -35.6487 c 0,-20.9866 -0.65314,-38.5749 -1.588,-42.76315 -2.25785,-10.11531 -8.24816,-15.94875 -18.39958,-17.91773 -10.23239,-1.98469 -18.23952,0.0675 -25.77106,6.60513 -8.99892,7.81136 -9.92099,12.84927 -9.92099,54.20575 v 35.4158 h -13.563 -13.563 l -0.0341,-36.6936 c -0.0187,-20.1815 -0.61854,-39.11493 -1.3329,-42.07434 -2.43035,-10.0681 -9.84488,-16.74684 -20.06307,-18.07208 -10.02468,-1.30013 -18.25625,1.51764 -25.85748,8.85135 -8.99477,8.67825 -9.81979,13.25278 -9.81979,54.44897 v 33.5397 h -12.84915 -12.84916 z m 472.13883,58.119 c -0.5517,-0.5301 -1.0031,-37.5889 -1.0031,-82.3528 v -81.38891 h 13.563 13.563 v 30.33753 30.33752 l 5.8929,-5.11519 c 10.0033,-8.68321 16.9809,-10.97889 33.3684,-10.97858 12.7577,2.6e-4 15.1463,0.41042 22.4482,3.85467 9.7636,4.60548 17.0585,12.3637 21.4239,22.78482 3.081,7.35503 3.2066,9.31068 3.2237,50.17674 l 0.017,42.5234 h -12.8492 -12.8491 l -0.7139,-39.7799 c -0.6149,-34.26922 -1.056,-40.38084 -3.1837,-44.117 -5.1912,-9.11526 -16.2152,-13.78393 -28.7693,-12.18384 -8.63,1.09994 -13.0833,3.25687 -18.9991,9.20223 -7.8853,7.92463 -8.2118,9.7335 -8.9982,49.84201 l -0.7262,37.0365 -12.203,0.3923 c -6.7116,0.2158 -12.6543,-0.041 -13.206,-0.5715 z M 242.06694,930.88541 c -4.45002,-3.75402 -5.04658,-5.02935 -5.04658,-10.7888 0,-14.89094 17.07131,-21.81603 27.64336,-11.21372 14.60842,14.65025 -6.70809,35.40617 -22.59678,22.00252 z M 617.35543,861.29745 C 597.34402,847.32643 571.09611,808.58866 553.49922,767.0558 530.30982,712.32329 520.8573,658.30622 525.30343,605.92907 c 1.83943,-21.66909 7.10434,-49.49568 11.43828,-60.45461 3.41639,-8.63879 1.10164,-6.89823 -6.33229,4.7615 -3.14091,4.92634 -6.10312,8.97892 -6.58271,9.00575 -0.47959,0.0267 -2.24635,-4.13527 -3.92613,-9.24907 -4.01201,-12.21385 -4.10735,-29.14293 -0.23304,-41.38502 1.53961,-4.8649 2.61544,-9.02193 2.39072,-9.23783 -0.2247,-0.21591 -4.00147,2.68425 -8.39281,6.44477 -4.39134,3.76053 -8.44612,6.83732 -9.01062,6.83732 -1.65974,0 0.68311,-15.78822 3.51737,-23.70323 1.43625,-4.01089 4.04877,-10.04057 5.80562,-13.39929 3.51096,-6.71219 14.04197,-20.50987 15.65407,-20.50987 0.55922,0 3.47643,3.43137 6.48272,7.62525 7.50034,10.46331 22.35326,24.43192 36.00012,33.85674 10.49775,7.24995 36.60362,21.52944 39.47281,21.59097 0.67529,0.0144 -2.85822,-2.84172 -7.85226,-6.34711 -30.90449,-21.69222 -56.01812,-50.71648 -65.55899,-75.76762 -3.95017,-10.37182 -4.51208,-13.5888 -4.58073,-26.2251 -0.0899,-16.56719 2.78994,-26.65139 11.3163,-39.62438 17.35428,-26.40481 47.08576,-41.34636 82.14806,-41.28348 17.98221,0.0322 30.78665,2.85396 46.27244,10.19707 45.87802,21.7546 60.85297,69.14557 35.57326,112.57808 -10.22745,17.57152 -38.11298,46.49111 -57.4747,59.60598 -4.89378,3.31484 -8.65374,6.26142 -8.35551,6.54796 0.95788,0.92034 21.1648,-9.35578 33.36512,-16.96766 17.78594,-11.09676 42.80813,-35.27892 46.44308,-44.88391 0.83016,-2.19363 8.6739,5.10008 13.90048,12.92576 6.52371,9.76783 11.46784,22.72935 12.6192,33.0824 0.57435,5.16469 0.74603,9.67691 0.38152,10.02715 -0.36452,0.35023 -3.36284,-1.75449 -6.66292,-4.67718 -3.30008,-2.92267 -7.32766,-5.99655 -8.95016,-6.83086 l -2.95003,-1.51692 2.94476,7.87842 c 4.16341,11.13885 4.91756,26.63482 1.87649,38.55776 -1.34752,5.28314 -3.24571,10.6512 -4.21821,11.92904 -1.57532,2.06993 -2.17592,1.66837 -5.50663,-3.68184 -2.05615,-3.30285 -5.37215,-7.85701 -7.36888,-10.12036 l -3.63041,-4.11517 2.00297,4.80928 c 2.87288,6.89797 9.09033,36.05951 10.82501,50.77225 2.3006,19.51266 1.92429,60.04303 -0.72571,78.1615 -9.71451,66.41999 -39.17163,134.37719 -75.90518,175.11237 -8.81674,9.77719 -19.28028,16.92891 -24.76839,16.92891 -2.10324,0 -6.32968,-1.74931 -9.39209,-3.88734 z m 19.36522,-48.58108 c 14.82308,-7.30298 15.03007,-27.27125 0.35189,-33.95016 l -4.52193,-2.05758 -0.0308,-42.86636 c -0.0226,-31.29871 0.41022,-42.86635 1.60376,-42.86635 2.28792,0 31.01167,-27.31302 33.4682,-31.82445 1.10931,-2.03727 2.01693,-5.60643 2.01693,-7.93147 0,-4.63538 -3.1529,-12.90829 -5.43622,-14.26416 -4.2097,-2.49974 -10.99739,5.3276 -9.02258,10.40453 1.7509,4.50125 0.72244,6.22445 -11.23951,18.83196 -12.11991,12.77391 -15.96495,15.18152 -24.24564,15.18152 -11.51276,0 -19.72453,-5.83908 -23.00455,-16.35768 -2.64668,-8.4876 0.0981,-14.46725 12.97906,-28.27555 12.72114,-13.63696 16.97,-16.16431 21.11523,-12.55995 2.48953,2.16467 2.90153,2.02726 7.4552,-2.4868 l 4.82006,-4.7781 -4.10987,-4.12163 c -3.35767,-3.36729 -5.26814,-4.12163 -10.43853,-4.12163 -6.04696,0 -7.02331,0.62027 -21.93458,13.93492 -17.02594,15.20287 -22.11405,22.06161 -23.48252,31.65428 -2.7228,19.08637 10.92841,36.33964 30.94136,39.10567 l 7.77562,1.07469 0.37809,40.7446 0.3781,40.7446 -4.13416,2.05406 c -7.28465,3.61938 -11.61271,9.85433 -11.61271,16.72907 0,16.44004 14.90462,25.40466 29.93014,18.00197 z m -16.83213,-9.69048 c -6.57814,-6.72765 -1.94383,-17.40106 7.55539,-17.40106 3.52574,0 5.64011,0.98016 7.79666,3.6143 3.92523,4.79453 3.73729,9.47984 -0.54534,13.59459 -4.49666,4.3204 -10.69159,4.40081 -14.80671,0.19217 z m 21.39245,-157.81685 c 10.17789,-7.99009 25.04974,-24.25609 27.65546,-30.24803 3.12924,-7.19575 2.70449,-20.68294 -0.87508,-27.78753 -3.72439,-7.39197 -13.66355,-15.92187 -21.01992,-18.03949 -7.78066,-2.23978 -19.3465,-2.01461 -25.66302,0.49958 -5.75201,2.28951 -32.06689,26.42186 -35.39039,32.45514 -2.87459,5.21836 -2.52501,13.34789 0.79927,18.58638 1.55597,2.45196 3.28517,4.4581 3.84266,4.4581 0.5575,0 2.76784,-1.61475 4.91186,-3.58834 3.34577,-3.07981 3.67923,-4.05015 2.35296,-6.8469 -2.19113,-4.6205 -0.66974,-7.00169 13.02449,-20.38539 12.8896,-12.59732 18.71738,-15.523 27.69688,-13.90446 15.33292,2.76373 24.02298,18.58604 17.25613,31.41891 -2.05983,3.90633 -21.71356,24.84161 -25.6259,27.29686 -0.84073,0.52762 -3.35287,0.0499 -5.58254,-1.06146 -3.75822,-1.87336 -4.29758,-1.80082 -7.39441,0.99446 -1.83727,1.65837 -3.34049,3.78874 -3.34049,4.73413 0,3.41641 7.33868,7.40494 13.62466,7.40494 5.08628,0 7.36973,-0.99587 13.72738,-5.9869 z M 849.63061,778.5863 c -15.77591,-2.51594 -32.52337,-13.05436 -48.50211,-30.52022 -30.63334,-33.48435 -57.17043,-91.92324 -57.34264,-126.27761 -0.0343,-6.83655 -0.91875,-19.75248 -1.96552,-28.70204 l -1.90321,-16.27196 6.24449,-12.07438 c 3.43447,-6.64091 7.62134,-17.01701 9.30415,-23.05801 3.04244,-10.92173 3.08068,-10.97572 6.78559,-9.58213 2.04925,0.77081 17.21752,6.20789 33.70727,12.0824 16.48975,5.8745 44.75789,15.95812 62.8181,22.40804 18.0602,6.44991 44.7222,15.81786 59.24888,20.81765 69.72522,23.99803 78.6949,27.85909 92.57559,39.84987 9.2787,8.0153 14.3652,16.21437 15.4018,24.82629 1.6295,13.53837 -6.3722,27.07267 -30.03535,50.80282 -31.95879,32.04924 -70.21821,57.96579 -103.92767,70.39956 -6.9152,2.55067 -29.28411,7.07336 -33.09334,6.691 -0.87869,-0.0882 -5.07088,-0.71428 -9.31603,-1.39128 z M 374.2813,776.66794 C 332.16915,765.45726 268.89528,720.92269 239.31644,681.67453 221.40256,657.9046 225.82289,637.51556 252.59787,620.4133 c 14.81023,-9.45991 14.31859,-9.2692 102.92026,-39.92243 46.47134,-16.07755 99.79245,-34.89796 122.49173,-43.23515 8.08587,-2.96985 15.56555,-5.39972 16.6215,-5.39972 1.19351,0 2.85428,3.66334 4.3895,9.6824 1.35827,5.32531 5.50025,15.48834 9.2044,22.58453 6.65624,12.75162 6.72044,13.00272 5.50258,21.52431 -0.67773,4.7422 -1.80012,18.80722 -2.4942,31.25561 -0.99638,17.86992 -2.04879,25.19003 -5.00045,34.78086 -12.69521,41.25053 -33.97153,78.05321 -59.28184,102.5427 -10.98664,10.63034 -15.81959,14.21562 -24.96254,18.51827 -10.63776,5.00609 -12.2251,5.35494 -25.69831,5.64759 -9.26301,0.2012 -17.07524,-0.41085 -22.0092,-1.72433 z M 220.14747,598.90787 C 175.68379,591.80126 101.60064,521.46645 48.069732,435.53663 16.042126,384.12473 10.92011,359.61266 29.015005,344.34788 48.91869,327.55719 99.127022,323.54071 162.06696,333.7042 c 40.38712,6.52168 72.30014,14.04744 137.05766,32.32108 62.18293,17.54712 98.11319,29.01649 217.47567,69.42083 3.39816,1.15027 6.53813,2.99198 6.97773,4.09266 0.48718,1.21982 -1.99475,4.77073 -6.35625,9.09393 -15.89627,15.7566 -25.88185,36.10792 -27.15015,55.33394 l -0.73914,11.20478 -10.15674,4.09329 c -14.87764,5.99588 -25.65994,7.647 -43.46316,6.65559 -16.54834,-0.92151 -23.45999,-2.41753 -64.88489,-14.04413 -28.0733,-7.87926 -64.95955,-18.19858 -113.10591,-31.64255 -14.9193,-4.16594 -31.90984,-8.6614 -37.75674,-9.98993 -9.54768,-2.16939 -10.76842,-2.82239 -11.98197,-6.40932 -3.39647,-10.03915 -13.097,-16.93153 -23.91939,-16.99509 -21.32623,-0.12524 -32.28337,27.44223 -16.27498,40.94685 10.9752,9.25865 24.7748,8.70283 34.25542,-1.37977 2.74718,-2.9216 4.99488,-5.92753 4.99488,-6.6798 0,-0.75228 1.1458,-1.36777 2.54623,-1.36777 1.40042,0 29.18672,7.41562 61.74733,16.47915 32.56061,9.06352 77.83238,21.65037 100.60394,27.97078 22.77156,6.32039 45.09696,11.91199 49.61201,12.42576 4.51505,0.51375 8.20919,1.40339 8.20919,1.97698 0,0.57357 -2.08799,1.70832 -4.63998,2.52166 -2.55198,0.81334 -24.55616,8.55581 -48.89817,17.20549 -69.49333,24.69374 -109.39634,37.72013 -124.76188,40.72869 -15.17111,2.97049 -19.43072,3.13927 -31.3102,1.24057 z m 784.96683,-0.58015 c -11.74157,-2.04869 -50.06657,-14.29311 -104.2209,-33.29748 -53.66168,-18.83147 -75.64293,-26.92081 -75.65564,-27.84207 -0.006,-0.46233 4.71805,-1.57367 10.49875,-2.46964 10.08513,-1.56313 38.43283,-9.09155 95.19746,-25.28196 33.26896,-9.48898 104.86323,-29.07571 110.66953,-30.27694 3.9175,-0.81047 4.7245,-0.36938 7.8523,4.29189 4.8515,7.2303 15.029,11.97048 23.1799,10.79609 20.837,-3.00222 29.1173,-25.51229 14.8592,-40.39497 -6.7898,-7.08726 -17.5115,-8.83297 -27.4147,-4.46365 -7.0319,3.10247 -10.4187,6.64592 -12.8519,13.44627 -1.6669,4.65865 -2.5543,5.35854 -8.0734,6.36781 -5.6791,1.03851 -41.64081,10.69971 -82.58182,22.18578 -131.06861,36.77151 -119.56117,34.04697 -144.19608,34.14035 -20.29917,0.077 -20.95109,-0.0141 -33.55058,-4.68477 l -12.84915,-4.76325 -1.02035,-10.81695 c -1.84377,-19.54602 -11.34798,-39.96914 -25.51134,-54.82011 -4.64562,-4.87114 -8.44657,-9.51185 -8.44657,-10.31269 0,-2.1746 2.18966,-3.06087 37.83458,-15.31369 71.47496,-24.56928 154.64582,-50.40603 214.15164,-66.52551 87.23397,-23.63075 147.65777,-32.97828 190.22187,-29.42727 43.0157,3.58869 63.1452,15.75427 63.184,38.18624 0.039,22.43539 -33.6573,81.00153 -76.274,132.5693 -47.3641,57.31244 -91.1467,92.09862 -124.3076,98.76498 -11.9668,2.4057 -16.6266,2.39693 -30.6952,-0.0578 z M 175.36446,479.90219 c -6.05214,-5.19563 -6.1763,-12.25974 -0.31872,-18.13409 10.05894,-10.08772 27.58096,0.90054 22.01682,13.807 -3.80032,8.81519 -14.08178,10.86553 -21.6981,4.32709 z m 885.31974,-0.0661 c -3.0897,-2.96859 -4.1732,-5.31107 -4.1732,-9.02176 0,-6.96941 6.3092,-13.03137 13.563,-13.03137 7.2537,0 13.563,6.06196 13.563,13.03137 0,3.71069 -1.0836,6.05317 -4.1733,9.02172 -3.0896,2.96856 -5.5277,4.00965 -9.3897,4.00965 -3.8621,0 -6.3002,-1.04109 -9.3898,-4.00965 z M 578.1934,314.3738 c -5.00285,-7.37769 -6.89961,-9.05654 -11.53793,-10.21237 -3.05297,-0.76078 -7.96007,-1.97955 -10.90466,-2.70837 -2.9446,-0.72883 -11.7784,-2.03726 -19.63066,-2.90763 -7.85226,-0.87037 -15.07991,-2.20146 -16.06144,-2.958 -2.26714,-1.74739 -2.3076,-6.84701 -0.0714,-8.99557 2.11991,-2.03681 13.62358,-2.12539 24.52669,-0.18884 4.51243,0.80147 8.87845,1.24135 9.70225,0.97751 0.82379,-0.26383 -3.35113,-4.55912 -9.27762,-9.54509 l -10.77544,-9.06539 -10.14885,1.85797 c -17.08949,3.12863 -32.30893,4.83509 -34.83064,3.90535 -4.16342,-1.53504 -5.65203,-5.82888 -3.24464,-9.35901 1.83131,-2.68536 3.81078,-3.25917 14.0214,-4.0645 6.53898,-0.51574 14.00854,-1.38208 16.599,-1.9252 l 4.70994,-0.98747 -7.51358,-5.4869 c -4.13248,-3.01779 -8.19872,-5.90458 -9.03609,-6.41509 -0.83736,-0.51052 -5.78784,0.20817 -11.00106,1.59709 -13.35507,3.5581 -30.27971,6.00494 -34.49861,4.98756 -1.96557,-0.47398 -3.9957,-2.13914 -4.51143,-3.70036 -1.7118,-5.18203 2.56036,-7.51386 18.60819,-10.15673 8.23676,-1.35648 14.95141,-2.84401 14.92147,-3.30561 -0.03,-0.46158 -3.6764,-3.20262 -8.10326,-6.09116 l -8.04885,-5.25191 -11.52894,2.77821 c -17.86322,4.30462 -29.71705,5.1404 -32.66975,2.30344 -5.01735,-4.82068 -1.57105,-9.60931 7.90956,-10.9903 3.35277,-0.48838 9.51187,-1.52296 13.68688,-2.29907 l 7.59092,-1.41109 -7.50536,-5.38027 c -4.12795,-2.95913 -8.50756,-5.0951 -9.73245,-4.74656 -1.2249,0.34853 -8.18397,0.78021 -15.46462,0.95927 -10.91489,0.26846 -13.66799,-0.0881 -15.69093,-2.03167 -2.23197,-2.14447 -2.25711,-2.6945 -0.27863,-6.09355 1.90225,-3.26805 3.15303,-3.78087 9.98021,-4.09189 15.03626,-0.68501 14.67237,-0.15082 8.39084,-12.31765 -3.023,-5.85534 -6.41164,-14.45963 -7.5303,-19.12066 -1.77022,-7.37581 -1.76529,-8.8431 0.038,-11.31672 4.53291,-6.21795 10.23582,-2.37256 13.07685,8.81753 2.89118,11.38763 10.93877,25.52173 18.69472,32.83378 l 7.18208,6.77103 -5.27613,-15.34426 -5.27614,-15.34426 3.11215,-2.99017 c 2.57388,-2.47299 3.68927,-2.73752 6.44891,-1.52943 2.71059,1.18663 4.45446,4.90106 9.29288,19.79374 3.27588,10.08315 6.36731,20.02628 6.86987,22.09584 0.7783,3.20509 8.11339,9.63592 15.7544,13.81224 2.02981,1.10942 0.30618,-8.34715 -4.28994,-23.53647 -2.95856,-9.77749 -3.11235,-11.40405 -1.31173,-13.87403 2.98743,-4.09797 8.51173,-3.60667 10.95447,0.97422 1.91132,3.58434 8.12198,28.65498 10.19634,41.15978 0.77145,4.65045 2.17682,6.76955 6.90918,10.41813 3.26741,2.51913 6.66359,4.97338 7.54707,5.45389 2.13735,1.16253 1.1178,-8.57066 -2.47558,-23.63317 -2.57274,-10.78426 -2.59601,-11.68831 -0.36195,-14.06017 3.00094,-3.18602 6.56627,-3.23682 9.42567,-0.13429 2.94794,3.19856 6.77895,21.35031 7.80677,36.98937 l 0.83081,12.64128 6.83079,5.53406 c 3.75694,3.04373 7.21952,5.53405 7.69461,5.53405 0.88493,0 0.25003,-6.76044 -2.29373,-24.42357 -1.08279,-7.51854 -1.01562,-10.51536 0.26901,-12.00258 2.24117,-2.59459 7.67371,-2.53499 9.95774,0.10918 1.98517,2.29822 5.53922,28.10623 5.6624,41.11795 0.0738,7.80445 0.41385,8.58524 6.56993,15.08896 l 6.492,6.85861 -0.79629,-16.76272 c -0.75274,-15.84567 -0.63793,-16.84416 2.09866,-18.25133 3.55112,-1.82601 7.88203,-0.66296 9.26415,2.48784 1.74339,3.97435 2.4662,30.74651 1.03183,38.21779 -1.28885,6.71327 -1.11138,7.44767 3.58132,14.81945 2.71557,4.26588 4.70407,7.89573 4.41892,8.06633 -0.28515,0.1706 -2.87525,1.33812 -5.7558,2.59448 l -5.23735,2.28428 z m 85.34755,5.82608 c -4.91671,-1.86668 -4.89626,-2.96767 0.19188,-10.33631 l 4.1058,-5.946 -0.7387,-17.49912 c -0.909,-21.53422 0.17292,-29.71538 4.20388,-31.78813 2.12183,-1.09107 3.89667,-1.10156 6.32749,-0.0374 3.36365,1.4725 3.37439,1.5528 2.45058,18.31645 l -0.9279,16.83747 6.59211,-6.85862 c 6.32441,-6.58013 6.59438,-7.20083 6.64876,-15.28655 0.0971,-14.44194 2.97761,-36.6958 5.16782,-39.92531 2.42759,-3.57957 6.58809,-4.0129 9.22448,-0.96076 1.48044,1.71389 1.50872,5.33972 0.14604,18.71924 -0.92951,9.1265 -1.44158,16.83233 -1.13792,17.12408 0.30363,0.29176 3.54032,-2.11346 7.19261,-5.34494 l 6.64053,-5.8754 1.36218,-13.10163 c 1.3125,-12.62368 4.49902,-29.56647 6.50319,-34.57759 1.5807,-3.95227 7.84294,-4.68075 10.73531,-1.24883 2.33666,2.77254 2.33174,3.51689 -0.0942,14.26695 -1.40772,6.23799 -2.99464,14.32861 -3.52646,17.97916 l -0.96697,6.63736 7.76514,-5.63294 c 7.39706,-5.36592 7.80948,-5.99527 8.70014,-13.2764 1.38929,-11.35732 7.79963,-36.36387 10.23855,-39.94022 2.46919,-3.62075 7.98625,-4.12313 10.70568,-0.97483 1.54262,1.78587 1.09043,5.06984 -2.69152,19.54705 -2.50009,9.57031 -4.54069,17.90294 -4.53466,18.51697 0.006,0.61402 3.74672,-1.40137 8.31265,-4.47864 7.42811,-5.00629 8.50139,-6.35068 10.19962,-12.77605 5.06749,-19.17328 11.67921,-36.67895 14.37728,-38.06631 3.24693,-1.6696 7.67778,0.0387 9.05695,3.4919 0.47773,1.19618 -1.32956,8.68807 -4.01622,16.64866 l -4.88485,14.47378 3.67284,-3.23624 c 8.46322,-7.45724 16.02005,-19.25079 19.91289,-31.07701 4.38821,-13.33113 6.86783,-17.05108 10.97022,-16.4577 7.53909,1.09048 6.29705,13.44529 -3.21046,31.93476 -4.01086,7.80004 -5.14991,11.25112 -3.9546,11.98158 0.9234,0.56428 5.65783,1.03543 10.52098,1.04698 7.36999,0.0176 9.19425,0.50412 10.95754,2.92288 1.385,1.89987 1.72275,3.9129 0.97811,5.82983 -1.07376,2.76422 -2.09531,2.9292 -18.27022,2.95063 l -17.13286,0.0226 -6.67644,4.99767 -6.67643,4.99768 3.99533,0.78511 c 2.19742,0.4318 8.49252,1.43725 13.9891,2.2343 6.19909,0.89893 10.67141,2.30986 11.7784,3.71584 2.34794,2.98212 2.2715,3.60408 -0.90644,7.37483 -2.65132,3.1459 -2.86738,3.16844 -14.63376,1.52654 -6.5685,-0.91657 -15.97994,-2.6544 -20.91433,-3.86183 l -8.97161,-2.19533 -7.85403,5.19725 c -9.36132,6.19468 -9.04541,6.51002 9.55281,9.53603 16.43648,2.67429 20.80345,6.4589 14.13912,12.25363 -2.32668,2.02309 -4.27333,2.29324 -11.1436,1.54642 -7.85907,-0.85431 -28.3845,-5.14778 -33.23434,-6.9519 -1.38266,-0.51434 -5.60338,1.6565 -11.14834,5.73393 l -8.92329,6.56165 9.72066,1.63036 c 5.34636,0.8967 12.17211,1.66829 15.16833,1.71466 2.99622,0.0464 6.69036,0.72328 8.20918,1.50427 3.3761,1.73603 3.6091,7.17176 0.43802,10.21854 -2.66739,2.56285 -8.89769,2.15224 -32.53018,-2.14386 l -14.15226,-2.57272 -10.66137,9.16787 c -5.86376,5.04233 -9.97568,9.38748 -9.13757,9.6559 0.8381,0.26842 5.2158,-0.16772 9.72824,-0.96919 10.90311,-1.93654 22.40677,-1.84797 24.52668,0.18885 2.23606,2.1484 2.19567,7.24501 -0.0714,9.00743 -0.98153,0.76305 -6.60304,1.82441 -12.49224,2.35857 -11.44591,1.03816 -27.72986,3.95671 -35.36351,6.33816 -3.28022,1.02332 -6.37378,3.86931 -10.40391,9.57132 -5.97114,8.44824 -6.66725,8.78411 -13.12454,6.33253 z"
       id="path1"
       inkscape:export-filename="path1.png"
       inkscape:export-xdpi="207.68767"
       inkscape:export-ydpi="207.68767" />
  </g>
</svg>
